<svg width="32" height="32" viewBox="0 0 32 32" fill="none" xmlns="http://www.w3.org/2000/svg">
<g clip-path="url(#clip0_2461_284)">
<path d="M13.245 12.3731C13.245 11.8183 13.0482 11.5409 12.6544 11.5409C12.5044 11.5409 12.3263 11.5779 12.12 11.6519C11.9138 11.7259 11.7169 11.7906 11.5294 11.8461C10.8356 12.2159 10.2919 12.6227 9.89815 13.0665C9.52316 13.4918 9.13878 13.9726 8.74503 14.5088C8.35128 15.0451 8.01378 15.6183 7.73253 16.2285C7.45128 16.8388 7.23564 17.412 7.08565 17.9482C6.54191 19.9268 6.74815 21.2582 7.7044 21.9424C8.09815 22.2198 8.51066 22.3585 8.9419 22.3585C9.3919 22.34 9.74816 22.2475 10.0107 22.0811C10.2919 21.9147 10.5638 21.7575 10.8263 21.6096C11.0888 21.4616 11.3888 21.3599 11.7263 21.3044C12.0825 21.2305 12.5138 21.2767 13.02 21.4431C13.545 21.5911 13.8263 21.7945 13.8638 22.0534C13.9013 22.3122 13.9013 22.5804 13.8638 22.8577C13.8263 23.1351 13.8169 23.3847 13.8357 23.6066C13.8731 23.8285 14.0794 23.9672 14.4544 24.0227C14.8107 24.4665 14.5857 25.0027 13.7794 25.6315C13.5732 25.7979 13.3763 25.9551 13.1888 26.103C11.5763 27.1201 9.86066 27.684 8.0419 27.795C6.89814 27.869 5.6794 27.6654 4.38565 27.1847C2.45439 26.4636 1.3669 24.8456 1.12315 22.3307C0.804404 20.0008 1.1044 17.5877 2.02315 15.0913C2.79189 12.9833 3.95441 11.0324 5.51065 9.23876C6.9169 7.59302 8.30439 6.52051 9.67315 6.02124C11.3044 5.18912 13.0669 4.86551 14.9607 5.05043C16.9669 5.30931 18.2794 6.15069 18.8982 7.57452C19.5169 8.99836 19.4138 10.7088 18.5888 12.7059C18.3075 13.4086 17.7732 13.9633 16.9857 14.3701C16.3107 14.74 15.5794 14.9249 14.7919 14.9249C14.0044 14.9249 13.4982 14.6845 13.2732 14.2037C13.0482 13.7044 13.0388 13.0942 13.245 12.3731ZM21.1268 13.649C21.8206 11.8368 22.3081 10.3667 22.5893 9.23876C22.4956 8.96138 22.4768 8.65627 22.5331 8.32343C22.9456 7.75018 23.4987 7.29715 24.1925 6.9643C24.8862 6.61296 25.6268 6.4558 26.4143 6.49277C27.1643 6.40032 27.7176 6.4373 28.0737 6.60372C28.7487 6.91807 28.9832 7.35262 28.7768 7.90737C28.8145 7.98134 28.9174 8.10153 29.0861 8.26795C29.2549 8.43438 29.3393 8.56383 29.3393 8.65627C29.0957 9.34047 28.7582 9.9969 28.3268 10.6256C27.9145 11.2358 27.5769 11.7259 27.3143 12.0957C27.0518 12.4655 26.8643 12.7614 26.7518 12.9833C26.6018 13.2422 26.5081 13.4456 26.4706 13.5935C27.6706 13.5011 28.6457 13.3901 29.3955 13.2607C29.827 13.2237 30.2674 13.2607 30.7174 13.3716C31.1862 13.4826 31.5426 13.6397 31.7861 13.8431C32.0488 14.0465 32.1425 14.2869 32.0674 14.5643C31.9926 14.8417 31.6362 15.1283 30.9987 15.4242C30.7551 15.4427 30.4269 15.5074 30.0143 15.6183C29.602 15.7108 29.1612 15.8125 28.6924 15.9234C28.2424 16.0344 27.802 16.1453 27.3706 16.2563C26.9581 16.3672 26.6581 16.4412 26.4706 16.4782C26.0206 16.5891 25.655 16.7833 25.3737 17.0607C24.83 19.2981 24.3144 20.648 23.8268 21.1103C23.5831 21.3322 23.2925 21.4801 22.955 21.5541C22.6362 21.6281 22.2894 21.7575 21.9143 21.9424C21.5393 22.1273 21.0987 22.2105 20.5925 22.192C20.0862 22.1551 19.655 22.0071 19.2987 21.7482C18.9612 21.4894 18.7268 21.1288 18.5956 20.6665C18.4644 20.2042 18.5112 19.6587 18.7362 19.03C18.8112 18.7526 18.8956 18.4753 18.9893 18.1979C19.1018 17.9205 19.205 17.6524 19.2987 17.3935C18.9425 17.2271 18.7456 17.0884 18.7081 16.9774C18.5206 16.848 18.38 16.6723 18.2862 16.4504C17.8737 16.247 17.4706 16.0621 17.0768 15.8957C16.7018 15.7108 16.3831 15.5166 16.1206 15.3132C15.4081 14.6105 15.4175 14.0465 16.1487 13.6212C16.3737 13.4918 16.6456 13.3716 16.9643 13.2607C17.9393 13.3161 18.4644 13.3346 18.5393 13.3161C18.6331 13.2792 18.6518 13.2607 18.5956 13.2607H18.5112C18.5675 13.2792 18.8768 13.3346 19.4393 13.4271C20.1143 13.538 20.6768 13.612 21.1268 13.649ZM26.4143 13.5935C26.4519 13.5011 26.4706 13.4456 26.4706 13.4271C26.4519 13.4271 26.4425 13.4363 26.4425 13.4548C26.4425 13.4733 26.4237 13.5195 26.3862 13.5935H26.4143Z" fill="url(#paint0_linear_2461_284)"/>
</g>
<defs>
<linearGradient id="paint0_linear_2461_284" x1="-20.0078" y1="26.7266" x2="38.8163" y2="-6.58899" gradientUnits="userSpaceOnUse">
<stop stop-color="white"/>
<stop offset="0.673944" stop-color="#FFD301"/>
</linearGradient>
<clipPath id="clip0_2461_284">
<rect width="32" height="32" rx="3" fill="white"/>
</clipPath>
</defs>
</svg>
